<svg id="Capa_1" enable-background="new 0 0 512 512" height="512" viewBox="0 0 512 512" width="512" xmlns="http://www.w3.org/2000/svg"><g><g><g><g><g><g><g><g><g><g><circle cx="256" cy="256" fill="#989eec" r="256"/></g></g></g></g></g></g></g></g></g><path d="m391.563 120.437-14.615-14.615-13.854 14.604-14.609-14.609-13.854 14.604-14.598-14.598-13.853 14.607-14.607-14.607-13.854 14.605-14.605-14.605-13.854 14.605-14.605-14.605-13.854 14.604-14.604-14.604-13.854 14.604-14.604-14.604-13.854 14.605-14.605-14.605-13.854 14.605-14.605-14.605-15 15 14.605 14.605-14.605 13.854 14.605 14.605-14.605 13.854s16.613 15.352 22.89 22.119l-7.89-7.89-15 14.23 14.604 14.604-14.604 13.854 14.604 14.604-14.604 13.854 14.605 14.605-14.605 13.854 14.604 14.604-14.604 13.854 14.604 14.604-14.604 13.854 14.605 14.605-14.605 13.854 14.615 14.615-14.615 14.615 101.105 101.105c15.886 3.081 32.288 4.715 49.074 4.715 141.385 0 256-114.615 256-256 0-16.786-1.634-33.188-4.718-49.073l-101.105-101.104z" fill="#7c83e7"/><g><path d="m256 149.221h-111.051v57.786h25.627v-15.803h61.933v154.583h-19.221v25.627h42.712l11.746-108.568z" fill="#ffd944"/><g><g><path d="m263.115 406.177h-14.229v-15h14.229zm-28.458 0h-14.229v-15h14.229zm-28.459 0h-14.229v-15h14.229zm-28.458 0h-14.229v-15h14.229zm-28.459 0h-14.229v-15h14.229z" fill="#d6e9f8"/></g><g><path d="m105.823 391.177h15v15h-15z" fill="#d6e9f8"/></g><g><path d="m120.823 376.948h-15v-14.229h15zm0-28.458h-15v-14.229h15zm0-28.458h-15v-14.229h15zm0-28.459h-15v-14.229h15zm0-28.458h-15v-14.229h15zm0-28.458h-15v-14.229h15zm0-28.459h-15v-14.229h15zm0-28.458h-15v-14.229h15zm0-28.459h-15v-14.229h15z" fill="#d6e9f8"/></g><g><path d="m105.823 105.823h15v15h-15z" fill="#d6e9f8"/></g><g><path d="m263.115 120.823h-14.229v-15h14.229zm-28.459 0h-14.229v-15h14.229zm-28.458 0h-14.229v-15h14.229zm-28.458 0h-14.229v-15h14.229zm-28.459 0h-14.229v-15h14.229z" fill="#d6e9f8"/></g></g><path d="m256 149.221v222.193h42.712v-25.627h-19.22v-154.583h61.932v15.803h25.627v-57.786z" fill="#ffbd32"/><g><g><g><path d="m391.177 391.177h15v15h-15z" fill="#b2d7f3"/></g></g><g fill="#b2d7f3"><path d="m362.719 391.177h14.229v15h-14.229z"/><path d="m334.261 391.177h14.229v15h-14.229z"/><path d="m305.802 391.177h14.229v15h-14.229z"/><path d="m277.344 391.177h14.229v15h-14.229z"/><path d="m362.719 105.823h14.229v15h-14.229z"/><path d="m334.261 105.823h14.229v15h-14.229z"/><path d="m305.802 105.823h14.229v15h-14.229z"/><path d="m277.344 105.823h14.229v15h-14.229z"/></g><g><g><path d="m391.177 105.823h15v15h-15z" fill="#b2d7f3"/></g></g><g><g><path d="m406.177 376.948h-15v-14.229h15zm0-28.458h-15v-14.229h15zm0-28.458h-15v-14.229h15zm0-28.459h-15v-14.229h15zm0-28.458h-15v-14.229h15zm0-28.459h-15v-14.229h15zm0-28.458h-15v-14.229h15zm0-28.458h-15v-14.229h15zm0-28.459h-15v-14.229h15z" fill="#b2d7f3"/></g></g></g><g fill="#b2d7f3"><path d="m256 391.177h7.115v15h-7.115z"/><path d="m256 105.823h7.115v15h-7.115z"/></g></g></g></svg>